<svg width="150" height="110" viewBox="0 0 150 110" fill="none" xmlns="http://www.w3.org/2000/svg">
	<path fill-rule="evenodd" clip-rule="evenodd"
		d="M10.8228 41.8227C9.73593 38.6231 9.14634 35.1931 9.14634 31.625C9.14634 14.159 23.2739 0 40.7012 0C48.5725 0 55.7706 2.88843 61.2979 7.6654C66.1843 4.55281 71.9827 2.74999 78.2012 2.74999C89.1252 2.74999 98.7527 8.31334 104.417 16.7672C108.537 14.8316 113.136 13.75 117.988 13.75C135.668 13.75 150 28.1142 150 45.8333C150 62.2374 137.716 75.766 121.864 77.6838C119.065 89.8939 108.155 99 95.1219 99C91.1148 99 87.3082 98.1391 83.8764 96.5918C78.1637 104.703 68.7387 110 58.0793 110C44.6532 110 33.1856 101.596 28.6275 89.751C27.9336 89.8055 27.2322 89.8333 26.5244 89.8333C11.8754 89.8333 0 77.9316 0 63.25C0 54.4574 4.25928 46.6618 10.8228 41.8227Z"
		fill="#DEEAF4" />
	<path
		d="M34.6834 42.5913L33.0348 41.2295C32.5331 40.8711 31.9597 40.9428 31.5296 41.3728L23.215 51.8377C22.9283 52.1961 22.9283 52.7695 23.215 53.1996L31.6013 63.5928C31.9597 64.0229 32.6048 64.1663 33.1065 63.7362L34.7551 62.3743C35.2568 62.0159 35.3285 61.2992 34.8985 60.8691L28.1608 52.4828L34.9701 44.0966C35.2568 43.6665 35.1852 43.0214 34.6834 42.5913Z"
		fill="#76A8D1" />
	<path
		d="M60.0573 51.7963L51.671 41.403C51.3126 40.973 50.6675 40.8296 50.1658 41.2597L48.5172 42.6215C48.0155 42.9799 47.9438 43.6967 48.3739 44.1268L55.1832 52.513L48.3739 60.8993C48.0155 61.3294 48.0871 62.0461 48.5172 62.4045L50.1658 63.7664C50.6675 64.1248 51.2409 64.0531 51.671 63.623L60.0573 53.1581C60.344 52.6564 60.344 52.1546 60.0573 51.7963Z"
		fill="#76A8D1" />
	<path
		d="M45.65 41.5334L43.4996 41.0316C42.9262 40.8883 42.2811 41.2466 42.1378 41.8201L36.8336 62.1764C36.6903 62.7499 37.0487 63.3233 37.6221 63.4666L39.7724 63.9684C40.3458 64.1117 40.9909 63.7534 41.1343 63.1799L46.4384 42.8235C46.5818 42.1784 46.2234 41.6767 45.65 41.5334Z"
		fill="#76A8D1" />
	<path
		d="M72.5603 59.832H75.2163V63H65.8083V59.832H68.4643V43.416H65.8083V40.344H75.2163V43.416H72.5603V59.832ZM99.0451 51.64C99.0451 54.072 98.5544 56.1413 97.5731 57.848C96.6131 59.5547 95.2371 60.8453 93.4451 61.72C91.6744 62.5733 89.5837 63 87.1731 63H79.3011V40.344H87.0131C90.8531 40.344 93.8184 41.272 95.9091 43.128C97.9997 44.984 99.0451 47.8213 99.0451 51.64ZM83.4611 43.768V59.544H86.7571C89.3811 59.544 91.3651 58.904 92.7091 57.624C94.0531 56.344 94.7251 54.3493 94.7251 51.64C94.7251 48.9307 94.0637 46.9467 92.7411 45.688C91.4397 44.408 89.4771 43.768 86.8531 43.768H83.4611ZM117.293 43.704H107.181V49.752H115.821V52.984H107.181V59.576H117.837V63H102.989V40.344H117.293V43.704Z"
		fill="#76A8D1" />
</svg>
